<?xml version="1.0" standalone="no"?>
<!DOCTYPE svg PUBLIC "-//W3C//DTD SVG 20010904//EN"
 "http://www.w3.org/TR/2001/REC-SVG-20010904/DTD/svg10.dtd">
<svg version="1.0" xmlns="http://www.w3.org/2000/svg"
 width="500.000000pt" height="500.000000pt" viewBox="0 0 500.000000 500.000000"
 preserveAspectRatio="xMidYMid meet">
<metadata>
Created by potrace 1.14, written by Peter Selinger 2001-2017
</metadata>
<g transform="translate(0.000000,500.000000) scale(0.100000,-0.100000)"
fill="#000000" stroke="none">
<path d="M1287 3683 c-3 -5 28 -111 69 -237 41 -126 115 -362 165 -525 152
-499 182 -575 283 -728 58 -89 211 -251 315 -335 300 -243 789 -454 1225 -529
114 -19 376 -27 376 -11 0 5 -10 18 -23 30 -21 20 -34 22 -128 22 -114 0 -215
19 -265 50 -60 38 -104 145 -214 519 -174 594 -329 910 -553 1132 -252 249
-646 454 -1131 589 -125 34 -114 32 -119 23z m597 -533 c73 -87 129 -170 202
-293 30 -52 54 -83 57 -75 3 7 5 2 5 -12 -1 -14 11 -52 26 -85 16 -33 39 -89
53 -125 13 -36 43 -107 65 -159 37 -85 43 -92 55 -75 12 17 13 15 7 -12 -5
-24 5 -45 57 -124 57 -88 109 -157 165 -220 89 -102 216 -226 307 -303 116
-98 142 -126 50 -53 -139 109 -376 343 -430 424 -11 15 -22 21 -37 17 -11 -2
-15 -2 -8 1 6 3 12 9 12 13 0 4 -30 52 -66 107 -63 94 -138 234 -162 304 -10
26 -15 30 -34 25 -22 -7 -22 -7 -4 8 19 14 19 16 1 63 -27 75 -129 275 -184
364 -70 112 -170 242 -192 247 -10 3 -16 10 -13 15 4 6 -33 51 -82 102 l-89
91 88 -85 c49 -47 117 -119 151 -160z m-97 54 c-3 -3 -12 -4 -19 -1 -8 3 -5 6
6 6 11 1 17 -2 13 -5z m150 -36 c-3 -8 -6 -5 -6 6 -1 11 2 17 5 13 3 -3 4 -12
1 -19z m10 -55 c-3 -10 -5 -4 -5 12 0 17 2 24 5 18 2 -7 2 -21 0 -30z m230
-175 c-3 -8 -6 -5 -6 6 -1 11 2 17 5 13 3 -3 4 -12 1 -19z m-10 -80 c-3 -7 -5
-2 -5 12 0 14 2 19 5 13 2 -7 2 -19 0 -25z m-170 -24 c-3 -3 -12 -4 -19 -1 -8
3 -5 6 6 6 11 1 17 -2 13 -5z m160 -26 c-3 -8 -6 -5 -6 6 -1 11 2 17 5 13 3
-3 4 -12 1 -19z m11 -315 c-10 -2 -28 -2 -40 0 -13 2 -5 4 17 4 22 1 32 -1 23
-4z m589 -235 c-3 -7 -5 -2 -5 12 0 14 2 19 5 13 2 -7 2 -19 0 -25z m-350
-224 c-3 -3 -12 -4 -19 -1 -8 3 -5 6 6 6 11 1 17 -2 13 -5z m283 3 c0 -2 -19
-21 -42 -42 l-43 -40 40 43 c36 39 45 47 45 39z m-353 -13 c-3 -3 -12 -4 -19
-1 -8 3 -5 6 6 6 11 1 17 -2 13 -5z m456 -321 c-7 -2 -19 -2 -25 0 -7 3 -2 5
12 5 14 0 19 -2 13 -5z"/>
</g>
</svg>
